<svg xmlns="http://www.w3.org/2000/svg" viewBox="0 0 48 48">
  <rect x="9.5" y="11.5" width="31" height="31" rx="10.5" fill="none" stroke="#D6337E" stroke-width="0.9" opacity="0.7" transform="translate(-2.4,2.4)"/>
  <path d="M20,11.5 H30 A10.5,10.5 0 0 1 40.5,22 V32 A10.5,10.5 0 0 1 30,42.5 H20 A10.5,10.5 0 0 1 9.5,32 V22 A10.5,10.5 0 0 1 20,11.5 Z M34.2,13.3 A4.8,4.8 0 1 0 43.8,13.3 A4.8,4.8 0 1 0 34.2,13.3 Z" fill="#D6337E" fill-rule="evenodd"/>
  <circle cx="39" cy="13.3" r="3.3" fill="#D6337E"/>
  <path d="M160 0V1440H432V254H1052V0Z" transform="translate(18.031,35.28) scale(0.011,-0.011)" fill="#fff"/>
</svg>
