<svg xmlns="http://www.w3.org/2000/svg" viewBox="0 0 48 48">
  <rect x="9.5" y="11.5" width="31" height="31" rx="10.5" fill="none" stroke="#4C1D95" stroke-width="1.8" opacity="0.55" transform="translate(-3.4,3.4)"/>
  <path d="M20,11.5 H30 A10.5,10.5 0 0 1 40.5,22 V32 A10.5,10.5 0 0 1 30,42.5 H20 A10.5,10.5 0 0 1 9.5,32 V22 A10.5,10.5 0 0 1 20,11.5 Z M34.5,11.5 A6,6 0 1 0 46.5,11.5 A6,6 0 1 0 34.5,11.5 Z" fill="#4C1D95" fill-rule="evenodd"/>
  <circle cx="40.5" cy="11.5" r="3.6" fill="#4C1D95"/>
  <path d="M140 0V1440H748Q769 1440 804.5 1438.5Q840 1437 868 1432Q997 1412 1079.5 1347Q1162 1282 1201 1183.5Q1240 1085 1240 964Q1240 843 1200.5 744.5Q1161 646 1078.5 581Q996 516 868 496Q840 492 804 490Q768 488 748 488H412V0ZM412 742H736Q757 742 782 744Q807 746 828 752Q883 767 913 802.5Q943 838 954.5 881.5Q966 925 966 964Q966 1003 954.5 1046.5Q943 1090 913 1125.5Q883 1161 828 1176Q807 1182 782 1184Q757 1186 736 1186H412Z" transform="translate(13.06,33.84) scale(0.009,-0.009)" fill="#fff"/>
  <path d="M474 0V1186H20V1440H1200V1186H746V0Z" transform="translate(24.21,33.84) scale(0.009,-0.009)" fill="#fff"/>
</svg>
