<svg xmlns="http://www.w3.org/2000/svg" viewBox="0 0 48 48">
  <rect x="9.5" y="11.5" width="31" height="31" rx="10.5" fill="none" stroke="#E05800" stroke-width="0.9" opacity="0.7" transform="translate(-2.4,2.4)"/>
  <path d="M20,11.5 H30 A10.5,10.5 0 0 1 40.5,22 V32 A10.5,10.5 0 0 1 30,42.5 H20 A10.5,10.5 0 0 1 9.5,32 V22 A10.5,10.5 0 0 1 20,11.5 Z M34.2,13.3 A4.8,4.8 0 1 0 43.8,13.3 A4.8,4.8 0 1 0 34.2,13.3 Z" fill="#E05800" fill-rule="evenodd"/>
  <circle cx="39" cy="13.3" r="3.3" fill="#E05800"/>
  <path d="M1266 -30 846 388 1014 556 1432 138ZM758 -30Q542 -30 385.5 64Q229 158 144.5 327Q60 496 60 720Q60 944 144.5 1113Q229 1282 385.5 1376Q542 1470 758 1470Q974 1470 1130.5 1376Q1287 1282 1371.5 1113Q1456 944 1456 720Q1456 496 1371.5 327Q1287 158 1130.5 64Q974 -30 758 -30ZM758 226Q895 224 986 285Q1077 346 1122.5 458Q1168 570 1168 720Q1168 870 1122.5 980Q1077 1090 986 1151Q895 1212 758 1214Q621 1216 530 1155Q439 1094 393.5 982Q348 870 348 720Q348 570 393.5 460Q439 350 530 289Q621 228 758 226Z" transform="translate(16.283,35.28) scale(0.011,-0.011)" fill="#fff"/>
</svg>
