<svg xmlns="http://www.w3.org/2000/svg" viewBox="0 0 48 48">
  <rect x="9.5" y="11.5" width="31" height="31" rx="10.5" fill="none" stroke="#B45309" stroke-width="0.9" opacity="0.7" transform="translate(-2.4,2.4)"/>
  <path d="M20,11.5 H30 A10.5,10.5 0 0 1 40.5,22 V32 A10.5,10.5 0 0 1 30,42.5 H20 A10.5,10.5 0 0 1 9.5,32 V22 A10.5,10.5 0 0 1 20,11.5 Z M34.2,13.3 A4.8,4.8 0 1 0 43.8,13.3 A4.8,4.8 0 1 0 34.2,13.3 Z" fill="#B45309" fill-rule="evenodd"/>
  <circle cx="39" cy="13.3" r="3.3" fill="#B45309"/>
  <path d="M140 0V1440H748Q769 1440 804.5 1438.5Q840 1437 868 1432Q997 1412 1079.5 1347Q1162 1282 1201 1183.5Q1240 1085 1240 964Q1240 783 1150 654.5Q1060 526 868 496L748 488H412V0ZM952 0 668 586 948 640 1260 0ZM412 742H736Q757 742 782 744Q807 746 828 752Q883 767 913 802.5Q943 838 954.5 881.5Q966 925 966 964Q966 1003 954.5 1046.5Q943 1090 913 1125.5Q883 1161 828 1176Q807 1182 782 1184Q757 1186 736 1186H412Z" transform="translate(16.95,35.28) scale(0.011,-0.011)" fill="#fff"/>
</svg>
