<svg xmlns="http://www.w3.org/2000/svg" viewBox="0 0 64 64">
  <defs>
    <linearGradient id="screen" x1="8" y1="7" x2="55" y2="58" gradientUnits="userSpaceOnUse">
      <stop stop-color="#14b8a6"/>
      <stop offset="1" stop-color="#0f766e"/>
    </linearGradient>
  </defs>
  <rect x="4" y="4" width="56" height="56" rx="17" fill="url(#screen)"/>
  <path d="M42.5 20.7c-2.1-2.2-5.4-3.4-9.5-3.4-7 0-11.7 3.5-11.7 8.7 0 5.5 4.5 7.2 10.7 8.4 4 .8 5.4 1.7 5.4 3.5 0 2-2.1 3.1-5.1 3.1-3.5 0-6.4-1.3-8.8-3.8l-4.2 4.1c3.1 3.5 7.4 5.3 12.9 5.3 7.5 0 12.3-3.6 12.3-9.1 0-5.4-4.1-7.4-10.8-8.7-3.9-.8-5.3-1.5-5.3-3.2 0-1.8 1.8-2.8 4.6-2.8 2.8 0 5.1 1 7.2 2.9l2.3-5Z" fill="white"/>
  <circle cx="49.5" cy="14.5" r="4.5" fill="#ccfbf1"/>
</svg>
